<svg width="720" height="455" viewBox="0 0 720 455" fill="none" xmlns="http://www.w3.org/2000/svg">
<g clip-path="url(#clip0_1_50)">
<path d="M349.391 364.308L83.3562 434.198C74.332 436.558 64.7588 435.169 56.7369 430.337C48.715 425.505 42.8994 417.624 40.566 408.423L-39.8854 89.6766C-42.1982 80.4702 -40.8371 70.7037 -36.1006 62.5198C-31.3641 54.3359 -23.639 48.4028 -14.6201 46.0223L232.882 -18.999L296.226 9.93186L374.657 320.653C376.97 329.859 375.609 339.626 370.872 347.81C366.136 355.994 358.41 361.927 349.391 364.308Z" fill="#F2F2F2"/>
<path d="M-12.1023 56.0159C-18.5249 57.7111 -24.0262 61.936 -27.3992 67.7639C-30.7723 73.5918 -31.7416 80.5467 -30.0946 87.1028L50.3618 405.85C52.0234 412.402 56.1647 418.014 61.8772 421.456C67.5897 424.897 74.407 425.886 80.8333 424.205L346.868 354.316C353.291 352.621 358.792 348.396 362.165 342.568C365.538 336.741 366.508 329.786 364.861 323.23L287.646 17.3206L231.974 -8.10559L-12.1023 56.0159Z" fill="white"/>
<path d="M295.55 11.579L254.378 22.3956C251.372 23.1851 248.182 22.7242 245.509 21.1142C242.837 19.5042 240.901 16.8771 240.127 13.8107L232.296 -17.2129C232.262 -17.3487 232.266 -17.4915 232.308 -17.625C232.349 -17.7585 232.427 -17.8773 232.532 -17.9678C232.637 -18.0584 232.764 -18.1169 232.9 -18.1369C233.036 -18.1568 233.175 -18.1373 233.301 -18.0806L295.665 10.1744C295.804 10.2374 295.92 10.3428 295.997 10.4761C296.075 10.6094 296.11 10.7639 296.097 10.9183C296.084 11.0726 296.025 11.2192 295.927 11.3375C295.829 11.4559 295.697 11.5403 295.55 11.579Z" fill="#F2F2F2"/>
<path d="M273.89 283.778L152.768 315.601C151.269 315.986 149.681 315.75 148.352 314.944C147.022 314.138 146.06 312.828 145.674 311.301C145.289 309.773 145.512 308.152 146.294 306.791C147.076 305.431 148.355 304.441 149.85 304.039L270.972 272.217C271.718 272.016 272.495 271.968 273.259 272.075C274.023 272.182 274.759 272.442 275.424 272.84C276.089 273.238 276.671 273.767 277.135 274.395C277.599 275.023 277.937 275.739 278.13 276.501C278.322 277.262 278.365 278.056 278.256 278.835C278.146 279.613 277.887 280.363 277.493 281.039C277.099 281.715 276.578 282.305 275.96 282.776C275.341 283.246 274.638 283.587 273.89 283.778Z" fill="#A1A1A1"/>
<path d="M302.188 297.148L157.692 335.11C156.946 335.31 156.169 335.358 155.405 335.251C154.641 335.144 153.905 334.884 153.24 334.486C152.575 334.088 151.993 333.56 151.529 332.931C151.065 332.303 150.727 331.588 150.534 330.826C150.342 330.064 150.299 329.271 150.408 328.492C150.518 327.713 150.777 326.964 151.171 326.287C151.565 325.611 152.086 325.021 152.704 324.551C153.323 324.08 154.026 323.74 154.774 323.548L299.27 285.586C300.77 285.202 302.358 285.438 303.687 286.244C305.016 287.05 305.978 288.359 306.364 289.887C306.75 291.415 306.527 293.036 305.744 294.396C304.962 295.757 303.684 296.746 302.188 297.148Z" fill="#A1A1A1"/>
<path d="M103.333 353.924C114.755 353.924 124.015 344.477 124.015 332.824C124.015 321.171 114.755 311.725 103.333 311.725C91.9106 311.725 82.6511 321.171 82.6511 332.824C82.6511 344.477 91.9106 353.924 103.333 353.924Z" fill="#FF6600"/>
<path d="M261.011 228.561L100.148 270.806C95.4985 272.021 90.5669 271.305 86.4345 268.816C82.3022 266.326 79.3067 262.265 78.1052 257.525L44.3955 123.922C43.2055 119.18 43.9077 114.149 46.348 109.935C48.7884 105.72 52.7677 102.664 57.4132 101.439L218.275 59.1941C222.924 57.9788 227.856 58.6946 231.988 61.1843C236.121 63.6741 239.116 67.7345 240.318 72.4747L274.028 206.078C275.218 210.82 274.516 215.85 272.076 220.065C269.635 224.28 265.656 227.335 261.011 228.561Z" fill="white"/>
<path d="M261.011 228.561L100.148 270.806C95.4985 272.021 90.5669 271.305 86.4345 268.816C82.3022 266.326 79.3067 262.265 78.1052 257.525L44.3955 123.922C43.2055 119.18 43.9077 114.149 46.348 109.935C48.7884 105.72 52.7677 102.664 57.4132 101.439L218.275 59.1941C222.924 57.9788 227.856 58.6946 231.988 61.1843C236.121 63.6741 239.116 67.7345 240.318 72.4747L274.028 206.078C275.218 210.82 274.516 215.85 272.076 220.065C269.635 224.28 265.656 227.335 261.011 228.561ZM57.9436 103.539C53.8447 104.621 50.3341 107.318 48.1817 111.038C46.0293 114.758 45.4109 119.197 46.4622 123.381L80.1729 256.984C81.2341 261.166 83.8776 264.747 87.5237 266.943C91.1698 269.139 95.5208 269.77 99.6222 268.697L260.481 226.457C264.58 225.374 268.091 222.677 270.243 218.958C272.396 215.238 273.014 210.799 271.963 206.615L238.255 73.0116C237.194 68.83 234.55 65.2484 230.904 63.0526C227.258 60.8567 222.907 60.2259 218.806 61.2983L57.9436 103.539Z" fill="#E6E6E6"/>
<path d="M210.114 104.113L128.931 125.433C128.222 125.635 127.463 125.555 126.81 125.209C126.156 124.863 125.655 124.276 125.409 123.567C125.294 123.197 125.255 122.807 125.293 122.421C125.331 122.034 125.446 121.66 125.631 121.321C125.815 120.981 126.066 120.684 126.367 120.446C126.668 120.209 127.013 120.036 127.382 119.939L210.023 98.2367C213.362 99.9626 212.483 103.492 210.115 104.114L210.114 104.113Z" fill="#F2F2F2"/>
<path d="M213.777 118.636L132.594 139.957C131.885 140.159 131.126 140.079 130.472 139.732C129.819 139.386 129.318 138.799 129.072 138.091C128.957 137.721 128.918 137.33 128.956 136.944C128.994 136.558 129.109 136.184 129.293 135.844C129.478 135.505 129.729 135.207 130.03 134.97C130.331 134.732 130.676 134.56 131.045 134.463L213.686 112.76C217.025 114.486 216.146 118.016 213.778 118.638L213.777 118.636Z" fill="#F2F2F2"/>
<path d="M117.132 152.841L92.3554 159.346C91.9547 159.451 91.5376 159.475 91.1279 159.416C90.7182 159.357 90.3239 159.216 89.9676 159.001C89.6113 158.786 89.3 158.502 89.0514 158.165C88.8028 157.827 88.6218 157.443 88.5188 157.034L80.9918 127.212C80.8886 126.803 80.8653 126.378 80.9233 125.96C80.9813 125.542 81.1194 125.14 81.3298 124.776C81.5402 124.413 81.8188 124.095 82.1496 123.841C82.4804 123.588 82.8569 123.403 83.2577 123.298L108.034 116.791C108.843 116.58 109.702 116.705 110.421 117.138C111.14 117.571 111.662 118.278 111.871 119.103L119.398 148.932C119.501 149.341 119.524 149.767 119.466 150.185C119.408 150.603 119.27 151.005 119.06 151.368C118.849 151.732 118.571 152.05 118.24 152.303C117.909 152.557 117.533 152.741 117.132 152.847V152.841Z" fill="#FF6600"/>
<path d="M221.049 148.449L97.1461 180.988C96.4365 181.19 95.6781 181.109 95.0242 180.763C94.3704 180.417 93.8697 179.83 93.6234 179.122C93.5089 178.751 93.4695 178.361 93.5076 177.975C93.5457 177.589 93.6607 177.214 93.8453 176.875C94.03 176.535 94.2805 176.238 94.5816 176C94.8827 175.763 95.2281 175.59 95.5966 175.494L220.958 142.572C224.296 144.298 223.417 147.827 221.049 148.449Z" fill="#F2F2F2"/>
<path d="M224.718 162.98L100.813 195.519C100.103 195.721 99.3451 195.641 98.6912 195.295C98.0373 194.949 97.5366 194.362 97.2904 193.653C97.1758 193.283 97.1364 192.893 97.1745 192.507C97.2127 192.12 97.3276 191.746 97.5122 191.407C97.6969 191.067 97.9474 190.769 98.2485 190.532C98.5496 190.295 98.895 190.122 99.2636 190.025L224.625 157.104C227.963 158.83 227.085 162.359 224.717 162.981L224.718 162.98Z" fill="#F2F2F2"/>
<path d="M228.38 177.505L104.477 210.043C103.767 210.245 103.009 210.165 102.355 209.818C101.701 209.472 101.201 208.885 100.954 208.177C100.84 207.807 100.8 207.416 100.838 207.03C100.877 206.644 100.991 206.27 101.176 205.93C101.361 205.59 101.611 205.293 101.912 205.055C102.214 204.818 102.559 204.646 102.927 204.549L228.288 171.627C231.626 173.353 230.747 176.883 228.38 177.505Z" fill="#F2F2F2"/>
<path d="M232.048 192.035L108.144 224.573C107.434 224.776 106.676 224.695 106.022 224.349C105.368 224.003 104.868 223.416 104.621 222.708C104.507 222.337 104.467 221.947 104.505 221.561C104.544 221.175 104.658 220.8 104.843 220.461C105.028 220.121 105.278 219.824 105.579 219.586C105.88 219.349 106.226 219.176 106.594 219.08L231.955 186.158C235.293 187.884 234.415 191.413 232.048 192.035Z" fill="#F2F2F2"/>
<path d="M235.712 206.559L111.809 239.097C111.099 239.299 110.341 239.219 109.687 238.872C109.033 238.526 108.532 237.939 108.286 237.231C108.172 236.861 108.132 236.471 108.17 236.084C108.208 235.698 108.323 235.324 108.508 234.984C108.693 234.645 108.943 234.347 109.244 234.11C109.545 233.872 109.891 233.7 110.259 233.603L235.62 200.681C238.958 202.407 238.079 205.937 235.712 206.559Z" fill="#F2F2F2"/>
<path d="M104.859 340.22C104.409 340.339 103.933 340.306 103.503 340.125L103.476 340.113L97.8421 337.676C97.5811 337.563 97.3444 337.398 97.1457 337.192C96.947 336.985 96.7902 336.741 96.6841 336.472C96.578 336.204 96.5247 335.917 96.5274 335.628C96.53 335.338 96.5885 335.052 96.6996 334.786C96.8106 334.519 96.9719 334.278 97.1744 334.075C97.3769 333.873 97.6165 333.713 97.8796 333.604C98.1427 333.496 98.4241 333.442 98.7078 333.444C98.9914 333.447 99.2718 333.507 99.5329 333.62L103.184 335.204L107.967 323.723C108.191 323.185 108.615 322.761 109.147 322.542C109.678 322.324 110.272 322.329 110.799 322.558L110.77 322.632L110.8 322.557C111.327 322.786 111.743 323.219 111.957 323.761C112.171 324.303 112.166 324.909 111.942 325.447L106.314 338.946C106.183 339.257 105.984 339.534 105.732 339.754C105.48 339.974 105.182 340.131 104.86 340.215L104.859 340.22Z" fill="white"/>
<path d="M610.898 448.127L340.912 394.372C331.758 392.539 323.683 387.083 318.459 379.202C313.235 371.321 311.289 361.659 313.048 352.335L374.28 29.5253C376.058 20.2061 381.395 11.9947 389.119 6.69258C396.844 1.39047 406.325 -0.569341 415.482 1.2431L666.66 51.2537L711.791 105.159L652.101 419.842C650.323 429.162 644.987 437.374 637.262 442.677C629.538 447.98 620.056 449.94 610.898 448.127Z" fill="#E6E6E6"/>
<path d="M413.562 11.3634C407.04 10.0728 400.289 11.4684 394.788 15.2441C389.288 19.0198 385.487 24.8673 384.221 31.5036L322.988 354.315C321.737 360.955 323.123 367.835 326.843 373.446C330.563 379.058 336.313 382.943 342.831 384.248L612.819 438.004C619.34 439.295 626.092 437.899 631.593 434.123C637.093 430.348 640.894 424.5 642.16 417.864L700.926 108.056L661.264 60.6819L413.562 11.3634Z" fill="white"/>
<path d="M613.242 148.359L490.453 123.966C488.929 123.664 487.585 122.759 486.716 121.45C485.847 120.142 485.524 118.538 485.818 116.99C486.112 115.442 486.999 114.078 488.285 113.198C489.57 112.318 491.148 111.993 492.672 112.296L615.463 136.689C616.987 136.992 618.331 137.897 619.2 139.205C620.07 140.513 620.393 142.118 620.099 143.665C619.804 145.213 618.917 146.577 617.632 147.457C616.346 148.337 614.768 148.662 613.245 148.359L613.242 148.359Z" fill="#FF6600"/>
<path d="M633.167 172.835L486.685 143.741C485.161 143.439 483.817 142.534 482.947 141.226C482.078 139.918 481.755 138.314 482.049 136.766C482.344 135.219 483.231 133.856 484.516 132.975C485.802 132.095 487.38 131.771 488.903 132.073L635.386 161.167C636.91 161.47 638.254 162.375 639.123 163.683C639.992 164.991 640.315 166.595 640.021 168.142C639.727 169.69 638.84 171.053 637.554 171.933C636.269 172.813 634.691 173.138 633.167 172.835Z" fill="#FF6600"/>
<path d="M598.575 225.316L475.789 200.925C474.266 200.622 472.688 200.946 471.403 201.827C470.117 202.707 469.23 204.071 468.936 205.618C468.642 207.166 468.965 208.77 469.834 210.078C470.703 211.386 472.047 212.291 473.571 212.594L596.356 236.986C597.87 237.266 599.431 236.928 600.699 236.047C601.968 235.166 602.843 233.812 603.134 232.277C603.426 230.743 603.111 229.152 602.258 227.849C601.404 226.547 600.081 225.637 598.575 225.316Z" fill="#A1A1A1"/>
<path d="M618.501 249.798L472.02 220.704C471.262 220.543 470.479 220.536 469.719 220.685C468.958 220.833 468.234 221.134 467.59 221.569C466.945 222.004 466.392 222.565 465.963 223.22C465.534 223.874 465.238 224.609 465.091 225.382C464.944 226.154 464.95 226.949 465.108 227.72C465.265 228.491 465.572 229.223 466.011 229.874C466.449 230.524 467.01 231.079 467.661 231.508C468.311 231.937 469.039 232.23 469.802 232.371L616.282 261.464C617.04 261.626 617.823 261.632 618.583 261.484C619.344 261.335 620.067 261.035 620.712 260.6C621.357 260.165 621.91 259.603 622.339 258.949C622.768 258.294 623.064 257.559 623.211 256.787C623.358 256.014 623.352 255.219 623.194 254.448C623.037 253.677 622.73 252.945 622.291 252.295C621.853 251.645 621.292 251.089 620.641 250.66C619.991 250.232 619.264 249.938 618.501 249.798Z" fill="#A1A1A1"/>
<path d="M579.467 325.621L456.679 301.228C455.155 300.926 453.811 300.021 452.942 298.712C452.072 297.404 451.749 295.799 452.044 294.252C452.338 292.704 453.225 291.34 454.511 290.46C455.796 289.58 457.374 289.255 458.897 289.558L581.689 313.951C583.213 314.253 584.557 315.159 585.426 316.467C586.295 317.775 586.619 319.38 586.324 320.927C586.03 322.475 585.143 323.839 583.857 324.719C582.572 325.599 580.994 325.924 579.47 325.621L579.467 325.621Z" fill="#A1A1A1"/>
<path d="M599.393 350.096L452.911 321.002C451.387 320.7 450.043 319.795 449.173 318.487C448.304 317.179 447.981 315.575 448.275 314.027C448.57 312.48 449.457 311.116 450.742 310.236C452.028 309.356 453.606 309.032 455.129 309.334L601.612 338.428C603.136 338.731 604.48 339.636 605.349 340.944C606.218 342.252 606.541 343.856 606.247 345.403C605.953 346.95 605.066 348.314 603.78 349.194C602.495 350.074 600.917 350.399 599.393 350.096Z" fill="#A1A1A1"/>
<path d="M434.633 138.596C445.857 140.83 456.713 133.378 458.881 121.951C461.048 110.523 453.706 99.4479 442.482 97.213C431.258 94.9782 420.402 102.43 418.234 113.858C416.066 125.285 423.408 136.361 434.633 138.596Z" fill="#FF6600"/>
<path d="M435.048 125.395C434.591 125.305 434.174 125.066 433.861 124.714L433.842 124.692L429.771 120.021C429.4 119.582 429.212 119.012 429.25 118.434C429.287 117.857 429.547 117.318 429.972 116.935C430.397 116.551 430.953 116.354 431.521 116.386C432.089 116.418 432.622 116.677 433.005 117.106L435.641 120.137L444.791 111.883C445.003 111.692 445.25 111.545 445.518 111.451C445.787 111.357 446.071 111.318 446.354 111.336C446.637 111.354 446.914 111.429 447.17 111.556C447.425 111.683 447.653 111.859 447.842 112.076L447.785 112.129L447.844 112.075C448.224 112.512 448.418 113.085 448.384 113.668C448.35 114.25 448.09 114.795 447.662 115.182L436.897 124.886C436.648 125.109 436.352 125.271 436.031 125.359C435.711 125.447 435.374 125.458 435.049 125.392L435.048 125.395Z" fill="white"/>
<path d="M444.081 210.993C443.566 213.71 442.531 216.297 441.034 218.605C439.537 220.912 437.608 222.896 435.357 224.443C433.105 225.989 430.576 227.068 427.912 227.617C425.249 228.167 422.505 228.176 419.835 227.645C419.66 227.614 419.487 227.572 419.316 227.52C415.34 226.62 411.71 224.546 408.88 221.558C406.051 218.57 404.147 214.8 403.408 210.721C402.668 206.641 403.126 202.433 404.724 198.623C406.321 194.813 408.988 191.57 412.389 189.299C415.791 187.029 419.776 185.833 423.847 185.86C427.918 185.887 431.894 187.137 435.277 189.452C438.659 191.768 441.299 195.046 442.865 198.878C444.431 202.709 444.854 206.923 444.081 210.993Z" fill="#FF6600"/>
<path d="M400.859 315.856C412.083 318.091 422.939 310.639 425.107 299.212C427.274 287.784 419.932 276.709 408.708 274.474C397.484 272.239 386.628 279.691 384.46 291.119C382.292 302.546 389.634 313.622 400.859 315.856Z" fill="#FF6600"/>
<path d="M710.491 106.036L668.719 97.7193C665.67 97.1121 662.979 95.2965 661.239 92.6719C659.499 90.0473 658.853 86.8286 659.442 83.724L665.399 52.3149C665.426 52.1774 665.489 52.0503 665.583 51.9481C665.677 51.846 665.797 51.7729 665.93 51.7373C666.063 51.7017 666.204 51.705 666.335 51.7468C666.466 51.7885 666.584 51.8672 666.673 51.9736L711.185 104.817C711.284 104.935 711.344 105.081 711.358 105.235C711.372 105.389 711.339 105.543 711.262 105.677C711.186 105.811 711.071 105.917 710.933 105.98C710.795 106.044 710.64 106.063 710.491 106.033L710.491 106.036Z" fill="#A1A1A1"/>
<path d="M463.061 420.459C461.776 422.609 459.706 424.149 457.308 424.742C454.909 425.335 452.378 424.932 450.272 423.621L341.703 356.061C339.596 354.75 338.086 352.639 337.505 350.192C336.924 347.745 337.319 345.163 338.604 343.013C339.89 340.864 341.959 339.323 344.357 338.73C346.756 338.137 349.287 338.541 351.394 339.852L459.962 407.412C462.068 408.723 463.578 410.834 464.159 413.281C464.74 415.728 464.346 418.31 463.061 420.459Z" fill="#202020"/>
<path d="M354.492 352.905C346.825 365.728 335.604 375.944 322.246 382.261C308.888 388.578 293.995 390.712 279.448 388.393C264.901 386.075 251.356 379.407 240.523 369.235C229.691 359.062 222.058 345.841 218.591 331.243C215.124 316.645 215.978 301.326 221.045 287.223C226.112 273.12 235.164 260.867 247.057 252.013C258.949 243.158 273.149 238.101 287.859 237.479C302.57 236.858 317.13 240.7 329.7 248.521C338.046 253.715 345.308 260.534 351.071 268.59C356.834 276.646 360.985 285.782 363.287 295.475C365.589 305.168 365.997 315.228 364.488 325.082C362.979 334.936 359.582 344.39 354.492 352.905ZM243.276 283.692C237.527 293.31 234.701 304.451 235.158 315.707C235.615 326.963 239.333 337.828 245.842 346.928C252.352 356.027 261.36 362.954 271.728 366.831C282.096 370.708 293.358 371.361 304.09 368.708C314.821 366.055 324.541 360.215 332.02 351.927C339.498 343.638 344.399 333.273 346.104 322.143C347.808 311.012 346.239 299.616 341.595 289.396C336.951 279.175 329.44 270.589 320.013 264.723C307.371 256.857 292.185 254.437 277.794 257.994C263.403 261.552 250.987 270.796 243.276 283.692Z" fill="#202020"/>
<path d="M271.255 368.436C301.502 379.061 334.465 362.659 344.88 331.801C355.294 300.944 339.218 267.315 308.971 256.69C278.724 246.065 245.761 262.467 235.346 293.325C224.932 324.182 241.009 357.811 271.255 368.436Z" fill="#FF6600"/>
</g>
<defs>
<clipPath id="clip0_1_50">
<rect width="761" height="474" fill="white" transform="translate(-41 -19)"/>
</clipPath>
</defs>
</svg>
